<svg width="24" height="24" viewBox="0 0 24 24" fill="none" xmlns="http://www.w3.org/2000/svg">
<path d="M16.8977 20.9462C17.083 20.9473 17.2655 20.8921 17.4281 20.7857C17.5907 20.6794 17.7283 20.5253 17.8278 20.338C17.9273 20.1506 17.9856 19.9361 17.9973 19.7144C18.0089 19.4928 17.9734 19.2712 17.8942 19.0704L15.129 11.9732L17.8942 4.86996C17.9737 4.66953 18.0094 4.44816 17.9979 4.22668C17.9863 4.00519 17.928 3.79082 17.8283 3.60382C17.7287 3.41682 17.5909 3.26329 17.4281 3.15766C17.2653 3.05203 17.0828 2.99783 16.8977 3.00007H7.10215C6.91708 2.99783 6.73456 3.05203 6.57178 3.15766C6.40901 3.26329 6.27136 3.41682 6.1717 3.60382C6.07204 3.79082 6.01368 4.00519 6.00213 4.22668C5.99058 4.44816 6.02619 4.66953 6.10565 4.86996L8.65675 11.4415C8.72314 11.6159 8.75747 11.8053 8.75747 11.997C8.75747 12.1887 8.72314 12.3782 8.65675 12.5526L6.10565 19.1241C6.02649 19.3249 5.9911 19.5465 6.00274 19.7682C6.01437 19.9899 6.07266 20.2044 6.17219 20.3918C6.27171 20.5791 6.40915 20.7331 6.57178 20.8395C6.73442 20.9458 6.9169 21.0011 7.10215 21L16.8977 20.9462Z" stroke="black" stroke-width="2" stroke-linecap="round" stroke-linejoin="round"/>
</svg>
