<svg width="24" height="24" viewBox="0 0 24 24" fill="none" xmlns="http://www.w3.org/2000/svg">
<path d="M9.67267 17.2791C10.3519 16.6088 10.8913 15.8102 11.2594 14.9297C11.6276 14.0493 11.8171 13.1045 11.8171 12.1502C11.8171 11.1958 11.6276 10.251 11.2594 9.37059C10.8913 8.49013 10.3519 7.69156 9.67267 7.02124" stroke="black" stroke-width="2" stroke-linecap="round" stroke-linejoin="round"/>
<path d="M14.9861 3.07312C17.1342 5.55242 18.3358 8.71173 18.3782 11.9918C18.4207 15.2719 17.3012 18.4613 15.218 20.9954" stroke="black" stroke-width="2" stroke-linecap="round" stroke-linejoin="round"/>
<path d="M4.32245 10.532C4.77479 10.5567 5.20048 10.7538 5.51195 11.0827C5.82343 11.4117 5.997 11.8475 5.997 12.3005C5.997 12.7535 5.82343 13.1893 5.51195 13.5182C5.20048 13.8472 4.77479 14.0443 4.32245 14.069" stroke="black" stroke-width="2" stroke-linecap="round" stroke-linejoin="round"/>
</svg>
