<svg width="225" height="40" viewBox="0 0 225 40" fill="none" xmlns="http://www.w3.org/2000/svg">
<g clip-path="url(#clip0_59_591)">
<path d="M214.407 1.61133H126.265C120.85 1.61133 116.461 5.98677 116.461 11.3842V29.0367C116.461 34.434 120.85 38.8095 126.265 38.8095H214.407C219.821 38.8095 224.211 34.434 224.211 29.0367V11.3842C224.211 5.98677 219.821 1.61133 214.407 1.61133Z" fill="#6859FE"/>
<path d="M36.8395 19.777C36.8395 15.1493 36.8395 10.5216 36.8395 5.91916C36.8395 2.01508 38.6035 0.214507 42.4525 0.201887C49.3401 0.179449 56.2333 0.179449 63.1322 0.201887C65.7404 0.201887 67.4919 1.46398 68.0996 3.62217C68.682 5.67938 68.0152 7.33695 66.3735 8.6327C65.3227 9.47409 64.0565 9.54558 62.7736 9.54558C57.8568 9.54558 52.9317 9.65497 48.0023 9.49931C45.1662 9.41096 46.3479 11.3588 46.0989 12.6209C45.8035 14.1396 46.5209 14.493 47.9432 14.4678C52.4421 14.3836 56.941 14.4299 61.4483 14.4383C64.8668 14.4383 66.8419 16.3146 66.8208 19.4867C66.7997 22.6587 64.833 24.4383 61.3343 24.4425C56.8397 24.4425 52.3408 24.493 47.8292 24.4131C46.4027 24.3879 45.8331 24.7413 45.9006 26.2642C46.0863 30.5343 44.9257 30.1051 49.7748 30.1472C54.4805 30.1851 59.1862 30.1767 63.8919 30.3029C65.9683 30.3576 67.2049 31.7206 67.7957 33.6011C68.3866 35.4817 67.7578 37.0509 66.3566 38.334C65.4529 39.1344 64.2726 39.5538 63.0647 39.5035C55.8901 39.5035 48.7155 39.533 41.562 39.5035C38.3841 39.4783 36.5609 37.5515 36.5355 34.27C36.4933 29.4404 36.5355 24.594 36.5355 19.7854L36.8395 19.777Z" fill="#695AFE"/>
<path d="M13.6866 30.4206C18.1391 30.4206 22.0682 30.4206 25.9974 30.4206C29.2555 30.4206 31.3657 32.2969 31.3066 35.0777C31.2517 37.7828 29.1965 39.5708 26.0523 39.575C19.1014 39.575 12.1462 39.575 5.19523 39.575C3.14836 39.575 1.43072 39.0112 0.493803 37.0508C-0.443116 35.0903 -0.0464437 33.4202 1.19012 31.7542C6.36427 24.7818 11.5188 17.7983 16.6536 10.8035C16.8941 10.4795 17.1093 10.1345 17.333 9.79798C16.7463 9.17114 16.0669 9.43618 15.4887 9.43197C11.9774 9.40252 8.46606 9.43197 4.93785 9.43197C1.80213 9.40673 0.00426241 7.74918 -0.012619 4.95995C-0.0295004 2.17072 1.81897 0.458438 4.89983 0.454231C11.99 0.454231 19.0845 0.483702 26.1789 0.424805C28.2891 0.424805 29.8971 1.10633 30.8213 2.99527C31.7456 4.8842 31.2433 6.5123 30.0701 8.09413C25.3602 14.4495 20.6614 20.8118 15.974 27.1812C15.3283 28.1236 14.6615 29.0785 13.6866 30.4206Z" fill="#6859FE"/>
<path d="M95.608 0.576281C90.3367 -0.488086 84.96 0.264964 79.6339 0.155582C76.1099 0.0798566 74.3753 1.92253 74.3627 5.48585C74.3627 10.3155 74.3627 15.1619 74.3627 19.9789C74.3627 24.9515 74.3627 29.92 74.3627 34.8926C74.3627 37.8922 76.1605 39.941 78.794 40.0041C81.3516 40.084 83.3478 38.0689 83.5081 35.1114C83.6221 33.3645 83.6221 31.6122 83.5081 29.8653C83.3815 28.2624 83.9597 27.8544 85.5213 27.867C88.8975 27.8964 92.3033 28.3213 95.6163 27.6566C101.879 26.3945 105.682 21.0937 105.678 13.9966C105.69 7.02139 101.926 1.83838 95.608 0.576281ZM96.6756 14.3499C96.5659 17.2401 95.2197 18.6074 92.4258 18.6453C91.2357 18.6453 90.0455 18.6453 88.8554 18.6453C85.8674 18.6453 84.5591 18.6453 83.9851 17.7029C83.9556 17.6524 83.926 17.5936 83.8965 17.5347C83.7774 17.267 83.6978 16.9836 83.6601 16.6933C83.547 15.5878 83.5075 14.4761 83.5419 13.3655C83.5419 9.41937 83.5419 9.41937 87.5006 9.41937C89.1887 9.41937 90.8769 9.36047 92.5398 9.41937C95.3547 9.54558 96.7896 11.2999 96.6756 14.3499V14.3499Z" fill="#6859FE"/>
<path d="M205.666 28.393C203.628 28.393 200.551 27.1561 199.576 24.6404C198.92 23.1534 198.601 21.5401 198.644 19.916C198.686 18.2919 199.088 16.6972 199.821 15.2462C200.461 14.0479 201.509 13.1158 202.775 12.6168C204.605 11.8472 206.645 11.7342 208.549 12.2971C211.431 13.1132 212.993 15.2756 213.508 18.494C214.103 22.2045 212.837 25.7384 210.224 27.3539C208.937 28.1406 207.544 28.3972 205.666 28.393ZM209.228 22.5032C209.641 21.1164 209.702 19.6492 209.406 18.2331C209.372 18.0438 209.258 17.8124 209.207 17.6231C208.84 16.361 207.397 15.5196 206.084 15.5196C205.457 15.5445 204.85 15.7415 204.329 16.0889C203.807 16.4364 203.392 16.9207 203.13 17.4885C202.775 18.3157 202.588 19.2045 202.579 20.104C202.569 21.0035 202.738 21.896 203.075 22.7304C203.607 24.0682 204.691 24.897 206.029 24.897C207.717 24.897 208.599 24.1187 209.228 22.6337C209.258 22.478 209.182 22.621 209.228 22.4948V22.5032Z" fill="white"/>
<path d="M171.726 18.5697C171.726 19.8318 171.76 21.0939 171.726 22.356C171.646 25.0064 170.401 26.8869 168.012 27.7956C166.842 28.2776 165.58 28.4945 164.316 28.4305C163.051 28.3664 161.817 28.0231 160.703 27.4254C158.732 26.3905 157.748 24.5857 157.689 22.3434C157.609 19.6846 157.651 17.0215 157.689 14.3501C157.689 13.7855 157.914 13.2441 158.315 12.8448C158.715 12.4456 159.258 12.2214 159.825 12.2214C160.391 12.2214 160.934 12.4456 161.335 12.8448C161.735 13.2441 161.96 13.7855 161.96 14.3501C161.994 16.8743 161.994 19.3985 161.96 21.9227C161.927 24.7792 164.383 25.2294 166.029 24.6152C167.215 24.1692 167.502 23.0922 167.51 21.9185C167.531 19.4616 167.51 17.0089 167.51 14.552C167.51 12.7346 168.848 11.7628 170.485 12.3771C170.866 12.5009 171.194 12.7468 171.419 13.0764C171.645 13.4059 171.754 13.8006 171.73 14.1987C171.73 15.6459 171.73 17.093 171.73 18.5402L171.726 18.5697Z" fill="white"/>
<path d="M133.857 12.0026C134.678 11.9549 135.501 11.9788 136.318 12.0741C137.063 12.1392 137.799 12.2874 138.512 12.5159C138.862 12.626 139.2 12.7668 139.525 12.9366C140.437 13.433 140.897 14.4048 140.563 15.2672C140.23 16.1297 139.263 16.7565 137.79 16.3274C136.773 16.0371 136.047 15.6585 135.03 15.4397C134.299 15.2944 133.542 15.3438 132.836 15.5828C132.679 15.6521 132.538 15.7546 132.425 15.8831C132.311 16.0117 132.227 16.1632 132.177 16.3274C132.098 16.5833 132.112 16.859 132.216 17.1059C132.32 17.3528 132.508 17.5553 132.747 17.6778C133.747 18.1785 134.743 18.1911 135.807 18.5571C136.637 18.7811 137.451 19.0622 138.242 19.3985C140.116 20.4124 141.31 21.9942 141.032 24.2576C140.804 26.1044 139.293 27.5474 137.373 28.0438C134.629 28.7675 132.198 28.5108 129.557 27.5432C128.29 27.0804 127.754 26.3316 127.83 25.3303C127.83 25.085 127.881 24.8424 127.979 24.6175C128.077 24.3926 128.221 24.1903 128.401 24.0233C128.582 23.8563 128.794 23.7282 129.027 23.6469C129.259 23.5655 129.505 23.5328 129.751 23.5508C130.186 23.545 130.618 23.6325 131.017 23.8074C132.435 24.3333 134.127 25.2546 135.769 25.0443C136.074 25.031 136.366 24.9146 136.596 24.7143C136.826 24.514 136.981 24.2417 137.035 23.942C137.119 23.1006 136.047 22.5074 135.511 22.3223C134.33 21.9016 132.363 21.5398 131.219 21.0266C129.641 20.3114 128.983 19.794 128.417 18.5319C127.227 15.9067 128.662 13.0628 132.114 12.255C132.688 12.1302 133.271 12.0459 133.857 12.0026V12.0026Z" fill="white"/>
<path d="M150.886 15.6794V16.6218C150.886 19.7209 150.886 22.8201 150.886 25.9192C150.886 26.7943 150.578 27.5137 149.785 27.8628C149.403 28.0551 148.974 28.1366 148.548 28.0979C148.122 28.0592 147.716 27.9019 147.375 27.6441C146.729 27.1645 146.636 26.4661 146.636 25.7173C146.636 22.6967 146.636 19.676 146.636 16.6512V15.7215C145.847 15.7215 145.138 15.7215 144.425 15.7215C144.052 15.73 143.68 15.7089 143.31 15.6584C142.931 15.5932 142.586 15.3985 142.334 15.1077C142.082 14.8169 141.94 14.448 141.931 14.064C141.897 13.6902 141.996 13.3165 142.212 13.0087C142.427 12.7009 142.744 12.4787 143.108 12.3812C143.417 12.2862 143.738 12.2365 144.062 12.2339C147.193 12.2339 150.326 12.2339 153.46 12.2339C154.781 12.2339 155.52 12.8565 155.537 13.9167C155.556 14.1391 155.529 14.3631 155.457 14.5744C155.384 14.7857 155.269 14.9796 155.117 15.1439C154.965 15.3082 154.781 15.4391 154.576 15.5284C154.37 15.6178 154.149 15.6634 153.925 15.6626C152.958 15.7215 151.95 15.6794 150.886 15.6794Z" fill="white"/>
<path d="M195.719 20.1978C195.719 22.1077 195.719 24.0177 195.719 25.9277C195.742 26.3168 195.656 26.7048 195.471 27.0482C195.286 27.3916 195.009 27.677 194.671 27.8725C194.332 28.068 193.946 28.1658 193.555 28.1552C193.164 28.1446 192.784 28.0259 192.457 27.8124C192.184 27.6678 191.953 27.4548 191.788 27.1943C191.623 26.9339 191.529 26.6351 191.516 26.3273C191.516 26.1759 191.478 26.0202 191.478 25.8688C191.478 22.0825 191.456 18.2962 191.478 14.5099C191.478 12.7472 192.853 11.8301 194.432 12.4064C195.276 12.7261 195.698 13.3656 195.698 14.4721C195.727 16.3778 195.719 18.2878 195.719 20.1978Z" fill="white"/>
<path d="M180.859 12.2339C178.61 12.2339 178.935 12.2339 176.993 12.2339C175.394 12.2339 174.643 13.0416 174.63 14.7118C174.63 16.5166 174.63 18.3256 174.63 20.1346C174.63 22.0193 174.63 23.9209 174.63 25.7888C174.63 27.2697 175.377 28.0479 176.77 28.0648C178.517 28.09 179.108 28.0648 180.855 28.0648C185.05 28.0648 188.599 25.406 188.599 20.0926C188.603 14.6066 184.662 12.2339 180.859 12.2339ZM185.109 20.2272C185.109 20.1893 185.109 20.1514 185.109 20.1136C185.05 22.8102 183.054 24.7412 180.69 24.7412H178.66V15.4565H180.69C183.151 15.4565 185.05 17.745 185.109 20.0841C185.109 20.0421 185.109 20.0042 185.109 19.9621V20.2272Z" fill="white"/>
</g>
<defs>
<clipPath id="clip0_59_591">
<rect width="224.211" height="40" fill="white"/>
</clipPath>
</defs>
</svg>
